<mxfile host="app.diagrams.net" agent="Mozilla/5.0 (Windows NT 10.0; Win64; x64) AppleWebKit/537.36 (KHTML, like Gecko) Chrome/136.0.0.0 Safari/537.36" version="27.0.5">
  <diagram name="Page-1" id="uJlpT8qUm9MmapB5rZoZ">
    <mxGraphModel dx="485" dy="203" grid="1" gridSize="10" guides="1" tooltips="1" connect="1" arrows="1" fold="1" page="1" pageScale="1" pageWidth="850" pageHeight="1100" math="0" shadow="0">
      <root>
        <mxCell id="0" />
        <mxCell id="1" parent="0" />
        <mxCell id="1u8-9aTz-8cbJRuWbw3a-1" value="user" style="shape=umlActor;verticalLabelPosition=bottom;verticalAlign=top;html=1;outlineConnect=0;hachureGap=4;fontFamily=Architects Daughter;fontSource=https%3A%2F%2Ffonts.googleapis.com%2Fcss%3Ffamily%3DArchitects%2BDaughter;" vertex="1" parent="1">
          <mxGeometry x="260" y="270" width="60" height="110" as="geometry" />
        </mxCell>
        <mxCell id="1u8-9aTz-8cbJRuWbw3a-5" value="Admin" style="shape=umlActor;verticalLabelPosition=bottom;verticalAlign=top;html=1;outlineConnect=0;hachureGap=4;fontFamily=Architects Daughter;fontSource=https%3A%2F%2Ffonts.googleapis.com%2Fcss%3Ffamily%3DArchitects%2BDaughter;" vertex="1" parent="1">
          <mxGeometry x="760" y="260" width="60" height="110" as="geometry" />
        </mxCell>
        <mxCell id="1u8-9aTz-8cbJRuWbw3a-9" value="" style="swimlane;startSize=0;hachureGap=4;strokeColor=default;align=center;verticalAlign=top;fontFamily=Architects Daughter;fontSource=https%3A%2F%2Ffonts.googleapis.com%2Fcss%3Ffamily%3DArchitects%2BDaughter;fontSize=12;fontColor=default;fillColor=default;" vertex="1" parent="1">
          <mxGeometry x="440" y="120" width="300" height="640" as="geometry" />
        </mxCell>
        <mxCell id="1u8-9aTz-8cbJRuWbw3a-10" value="Rigester" style="ellipse;whiteSpace=wrap;html=1;hachureGap=4;strokeColor=default;align=center;verticalAlign=top;fontFamily=Architects Daughter;fontSource=https%3A%2F%2Ffonts.googleapis.com%2Fcss%3Ffamily%3DArchitects%2BDaughter;fontSize=12;fontColor=default;fillColor=default;" vertex="1" parent="1u8-9aTz-8cbJRuWbw3a-9">
          <mxGeometry x="15" y="30" width="90" height="40" as="geometry" />
        </mxCell>
        <mxCell id="1u8-9aTz-8cbJRuWbw3a-29" value="Take risk&amp;nbsp;&lt;div&gt;assesment&lt;/div&gt;" style="ellipse;html=1;hachureGap=4;strokeColor=default;align=center;verticalAlign=middle;fontFamily=Architects Daughter;fontSource=https%3A%2F%2Ffonts.googleapis.com%2Fcss%3Ffamily%3DArchitects%2BDaughter;fontSize=12;fontColor=default;fillColor=default;whiteSpace=wrap;spacing=1;" vertex="1" parent="1u8-9aTz-8cbJRuWbw3a-9">
          <mxGeometry x="15" y="120" width="90" height="40" as="geometry" />
        </mxCell>
        <mxCell id="1u8-9aTz-8cbJRuWbw3a-30" value="Complete&amp;nbsp;&lt;div&gt;trainning&lt;/div&gt;" style="ellipse;whiteSpace=wrap;html=1;hachureGap=4;strokeColor=default;align=center;verticalAlign=top;fontFamily=Architects Daughter;fontSource=https%3A%2F%2Ffonts.googleapis.com%2Fcss%3Ffamily%3DArchitects%2BDaughter;fontSize=12;fontColor=default;fillColor=default;" vertex="1" parent="1u8-9aTz-8cbJRuWbw3a-9">
          <mxGeometry x="195" y="120" width="90" height="40" as="geometry" />
        </mxCell>
        <mxCell id="1u8-9aTz-8cbJRuWbw3a-31" value="" style="endArrow=classic;html=1;rounded=0;hachureGap=4;fontFamily=Architects Daughter;fontSource=https%3A%2F%2Ffonts.googleapis.com%2Fcss%3Ffamily%3DArchitects%2BDaughter;fontSize=12;fontColor=default;dashed=1;dashPattern=8 8;exitX=1;exitY=0.5;exitDx=0;exitDy=0;entryX=0;entryY=0.5;entryDx=0;entryDy=0;" edge="1" parent="1u8-9aTz-8cbJRuWbw3a-9" source="1u8-9aTz-8cbJRuWbw3a-29" target="1u8-9aTz-8cbJRuWbw3a-30">
          <mxGeometry relative="1" as="geometry">
            <mxPoint x="165" y="139.60000000000002" as="sourcePoint" />
            <mxPoint x="225" y="200" as="targetPoint" />
          </mxGeometry>
        </mxCell>
        <mxCell id="1u8-9aTz-8cbJRuWbw3a-32" value="&amp;lt;&amp;lt;extends&amp;gt;&amp;gt;" style="edgeLabel;resizable=0;html=1;;align=center;verticalAlign=bottom;hachureGap=4;strokeColor=default;fontFamily=Architects Daughter;fontSource=https%3A%2F%2Ffonts.googleapis.com%2Fcss%3Ffamily%3DArchitects%2BDaughter;fontSize=12;fontColor=default;fillColor=default;" connectable="0" vertex="1" parent="1u8-9aTz-8cbJRuWbw3a-31">
          <mxGeometry relative="1" as="geometry" />
        </mxCell>
        <mxCell id="1u8-9aTz-8cbJRuWbw3a-33" value="" style="endArrow=classic;html=1;rounded=0;hachureGap=4;fontFamily=Architects Daughter;fontSource=https%3A%2F%2Ffonts.googleapis.com%2Fcss%3Ffamily%3DArchitects%2BDaughter;fontSize=12;fontColor=default;dashed=1;dashPattern=8 8;exitX=0;exitY=0.5;exitDx=0;exitDy=0;entryX=0;entryY=0.5;entryDx=0;entryDy=0;" edge="1" parent="1u8-9aTz-8cbJRuWbw3a-9" target="1u8-9aTz-8cbJRuWbw3a-35">
          <mxGeometry relative="1" as="geometry">
            <mxPoint x="59.370000000000005" y="160" as="sourcePoint" />
            <mxPoint x="59.370000000000005" y="230" as="targetPoint" />
          </mxGeometry>
        </mxCell>
        <mxCell id="1u8-9aTz-8cbJRuWbw3a-34" value="&amp;lt;&amp;lt;include&amp;gt;&amp;gt;" style="edgeLabel;resizable=0;html=1;;align=center;verticalAlign=bottom;hachureGap=4;strokeColor=default;fontFamily=Architects Daughter;fontSource=https%3A%2F%2Ffonts.googleapis.com%2Fcss%3Ffamily%3DArchitects%2BDaughter;fontSize=12;fontColor=default;fillColor=default;" connectable="0" vertex="1" parent="1u8-9aTz-8cbJRuWbw3a-33">
          <mxGeometry relative="1" as="geometry" />
        </mxCell>
        <mxCell id="1u8-9aTz-8cbJRuWbw3a-35" value="Provide Feedback" style="ellipse;html=1;hachureGap=4;strokeColor=default;align=center;verticalAlign=middle;fontFamily=Architects Daughter;fontSource=https%3A%2F%2Ffonts.googleapis.com%2Fcss%3Ffamily%3DArchitects%2BDaughter;fontSize=12;fontColor=default;fillColor=default;whiteSpace=wrap;spacing=1;" vertex="1" parent="1u8-9aTz-8cbJRuWbw3a-9">
          <mxGeometry x="195" y="180" width="90" height="40" as="geometry" />
        </mxCell>
        <mxCell id="1u8-9aTz-8cbJRuWbw3a-40" value="The AI -powered SETA plateform" style="text;html=1;align=center;verticalAlign=middle;resizable=0;points=[];autosize=1;strokeColor=none;fillColor=none;fontFamily=Architects Daughter;fontSource=https%3A%2F%2Ffonts.googleapis.com%2Fcss%3Ffamily%3DArchitects%2BDaughter;fontSize=12;fontColor=default;fontStyle=1" vertex="1" parent="1u8-9aTz-8cbJRuWbw3a-9">
          <mxGeometry x="45" width="210" height="30" as="geometry" />
        </mxCell>
        <mxCell id="1u8-9aTz-8cbJRuWbw3a-13" value="Enroll in live session" style="ellipse;whiteSpace=wrap;html=1;hachureGap=4;strokeColor=default;align=center;verticalAlign=top;fontFamily=Architects Daughter;fontSource=https%3A%2F%2Ffonts.googleapis.com%2Fcss%3Ffamily%3DArchitects%2BDaughter;fontSize=12;fontColor=default;fillColor=default;" vertex="1" parent="1u8-9aTz-8cbJRuWbw3a-9">
          <mxGeometry x="15" y="210" width="90" height="40" as="geometry" />
        </mxCell>
        <mxCell id="1u8-9aTz-8cbJRuWbw3a-15" value="Monitor&amp;nbsp;&lt;div&gt;progress&lt;/div&gt;" style="ellipse;whiteSpace=wrap;html=1;hachureGap=4;strokeColor=default;align=center;verticalAlign=top;fontFamily=Architects Daughter;fontSource=https%3A%2F%2Ffonts.googleapis.com%2Fcss%3Ffamily%3DArchitects%2BDaughter;fontSize=12;fontColor=default;fillColor=default;" vertex="1" parent="1u8-9aTz-8cbJRuWbw3a-9">
          <mxGeometry x="15" y="340" width="90" height="40" as="geometry" />
        </mxCell>
        <mxCell id="1u8-9aTz-8cbJRuWbw3a-21" value="Initiate Phishing Simulation" style="ellipse;whiteSpace=wrap;html=1;hachureGap=4;strokeColor=default;align=center;verticalAlign=top;fontFamily=Architects Daughter;fontSource=https%3A%2F%2Ffonts.googleapis.com%2Fcss%3Ffamily%3DArchitects%2BDaughter;fontSize=12;fontColor=default;fillColor=default;" vertex="1" parent="1u8-9aTz-8cbJRuWbw3a-9">
          <mxGeometry x="15" y="400" width="90" height="40" as="geometry" />
        </mxCell>
        <mxCell id="1u8-9aTz-8cbJRuWbw3a-42" value="" style="endArrow=none;html=1;rounded=0;hachureGap=4;fontFamily=Architects Daughter;fontSource=https%3A%2F%2Ffonts.googleapis.com%2Fcss%3Ffamily%3DArchitects%2BDaughter;fontSize=12;fontColor=default;exitX=1;exitY=0.3333333333333333;exitDx=0;exitDy=0;exitPerimeter=0;entryX=0.5;entryY=0.5;entryDx=0;entryDy=0;entryPerimeter=0;" edge="1" parent="1u8-9aTz-8cbJRuWbw3a-9" target="1u8-9aTz-8cbJRuWbw3a-5">
          <mxGeometry width="50" height="50" relative="1" as="geometry">
            <mxPoint x="105" y="362" as="sourcePoint" />
            <mxPoint x="240" y="230" as="targetPoint" />
          </mxGeometry>
        </mxCell>
        <mxCell id="1u8-9aTz-8cbJRuWbw3a-24" value="" style="endArrow=none;html=1;rounded=0;hachureGap=4;fontFamily=Architects Daughter;fontSource=https%3A%2F%2Ffonts.googleapis.com%2Fcss%3Ffamily%3DArchitects%2BDaughter;fontSize=12;fontColor=default;exitX=1;exitY=0.3333333333333333;exitDx=0;exitDy=0;exitPerimeter=0;entryX=0;entryY=0.5;entryDx=0;entryDy=0;" edge="1" parent="1" source="1u8-9aTz-8cbJRuWbw3a-1" target="1u8-9aTz-8cbJRuWbw3a-10">
          <mxGeometry width="50" height="50" relative="1" as="geometry">
            <mxPoint x="475" y="590" as="sourcePoint" />
            <mxPoint x="525" y="540" as="targetPoint" />
          </mxGeometry>
        </mxCell>
        <mxCell id="1u8-9aTz-8cbJRuWbw3a-27" value="" style="endArrow=none;html=1;rounded=0;hachureGap=4;fontFamily=Architects Daughter;fontSource=https%3A%2F%2Ffonts.googleapis.com%2Fcss%3Ffamily%3DArchitects%2BDaughter;fontSize=12;fontColor=default;entryX=0;entryY=0.5;entryDx=0;entryDy=0;" edge="1" parent="1" target="1u8-9aTz-8cbJRuWbw3a-29">
          <mxGeometry width="50" height="50" relative="1" as="geometry">
            <mxPoint x="320" y="300" as="sourcePoint" />
            <mxPoint x="455" y="290" as="targetPoint" />
          </mxGeometry>
        </mxCell>
        <mxCell id="1u8-9aTz-8cbJRuWbw3a-28" value="" style="endArrow=none;html=1;rounded=0;hachureGap=4;fontFamily=Architects Daughter;fontSource=https%3A%2F%2Ffonts.googleapis.com%2Fcss%3Ffamily%3DArchitects%2BDaughter;fontSize=12;fontColor=default;entryX=0;entryY=0.5;entryDx=0;entryDy=0;" edge="1" parent="1" target="1u8-9aTz-8cbJRuWbw3a-13">
          <mxGeometry width="50" height="50" relative="1" as="geometry">
            <mxPoint x="320" y="300" as="sourcePoint" />
            <mxPoint x="465" y="300" as="targetPoint" />
          </mxGeometry>
        </mxCell>
        <mxCell id="1u8-9aTz-8cbJRuWbw3a-37" value="AI" style="shape=umlActor;verticalLabelPosition=bottom;verticalAlign=top;html=1;outlineConnect=0;hachureGap=4;fontFamily=Architects Daughter;fontSource=https%3A%2F%2Ffonts.googleapis.com%2Fcss%3Ffamily%3DArchitects%2BDaughter;" vertex="1" parent="1">
          <mxGeometry x="760" y="430" width="60" height="110" as="geometry" />
        </mxCell>
        <mxCell id="1u8-9aTz-8cbJRuWbw3a-43" value="" style="endArrow=none;html=1;rounded=0;hachureGap=4;fontFamily=Architects Daughter;fontSource=https%3A%2F%2Ffonts.googleapis.com%2Fcss%3Ffamily%3DArchitects%2BDaughter;fontSize=12;fontColor=default;exitX=1;exitY=0.5;exitDx=0;exitDy=0;entryX=0.5;entryY=0.5;entryDx=0;entryDy=0;entryPerimeter=0;" edge="1" parent="1" source="1u8-9aTz-8cbJRuWbw3a-21" target="1u8-9aTz-8cbJRuWbw3a-5">
          <mxGeometry width="50" height="50" relative="1" as="geometry">
            <mxPoint x="555" y="492" as="sourcePoint" />
            <mxPoint x="790" y="310" as="targetPoint" />
          </mxGeometry>
        </mxCell>
      </root>
    </mxGraphModel>
  </diagram>
</mxfile>
